<?xml version="1.0" encoding="UTF-8" standalone="no"?>
<svg width="1039px" height="1390px" viewBox="0 0 1039 1390" version="1.1" xmlns="http://www.w3.org/2000/svg" xmlns:xlink="http://www.w3.org/1999/xlink" xmlns:sketch="http://www.bohemiancoding.com/sketch/ns">
    <title>Untitled 2</title>
    <description>Created with Sketch (http://www.bohemiancoding.com/sketch)</description>
    <defs></defs>
    <g id="Page-1" stroke="none" stroke-width="1" fill="none" fill-rule="evenodd" sketch:type="MSPage">
        <g id="Centrala-begrepp---test-ny-layout-+-tillägg,-utan-rubrik" sketch:type="MSLayerGroup">
            <path d="M0,0.04 L1038.96,0.04 L1038.96,1390 L0,1390 L0,0.04 Z" id="Fill-1" fill="#FFFFFF" sketch:type="MSShapeGroup"></path>
            <path d="M11,11 L1028,11 L1028,1379 L11,1379 L11,11 Z" id="Fill-3" fill="#FFFFFF" sketch:type="MSShapeGroup"></path>
            <path d="M11,11 L1028,11 L1028,1379 L11,1379 L11,11 Z" id="Stroke-4" stroke="#000000" stroke-linecap="round" stroke-linejoin="round" sketch:type="MSShapeGroup"></path>
            <path d="M56,47 L227.36,47 L227.36,281 L56,281 L56,47 Z" id="Fill-5" fill="#FFFFFF" sketch:type="MSShapeGroup"></path>
            <path d="M56,47 L227.36,47 L227.36,281 L56,281 L56,47 Z" id="Stroke-6" stroke="#000000" stroke-linecap="round" stroke-linejoin="round" sketch:type="MSShapeGroup"></path>
            <text id="Aktörer" sketch:type="MSTextLayer" font-family="Georgia" font-size="16" font-weight="bold" fill="#000000">
                <tspan x="109.3987" y="99.8203125">Aktörer</tspan>
            </text>
            <text id="Individer" sketch:type="MSTextLayer" font-family="Georgia" font-size="16" font-weight="normal" fill="#000000">
                <tspan x="108.8435" y="137.820312">Individer</tspan>
            </text>
            <text id="Grupper" sketch:type="MSTextLayer" font-family="Georgia" font-size="16" font-weight="normal" fill="#000000">
                <tspan x="111.7139" y="156.820312">Grupper</tspan>
            </text>
            <text id="Företag" sketch:type="MSTextLayer" font-family="Georgia" font-size="16" font-weight="normal" fill="#000000">
                <tspan x="114.5619" y="175.820312">Företag</tspan>
            </text>
            <text id="Organisationer" sketch:type="MSTextLayer" font-family="Georgia" font-size="16" font-weight="normal" fill="#000000">
                <tspan x="88.4963" y="194.820312">Organisationer</tspan>
            </text>
            <text id="Myndigheter" sketch:type="MSTextLayer" font-family="Georgia" font-size="16" font-weight="normal" fill="#000000">
                <tspan x="96.1571" y="213.820312">Myndigheter</tspan>
            </text>
            <text id="–" sketch:type="MSTextLayer" font-family="Georgia" font-size="16" font-weight="normal" fill="#000000">
                <tspan x="135.2243" y="232.820312">–</tspan>
            </text>
            <path d="M443,47 L614.36,47 L614.36,281 L443,281 L443,47 Z" id="Fill-7" fill="#FFFFFF" sketch:type="MSShapeGroup"></path>
            <path d="M443,47 L614.36,47 L614.36,281 L443,281 L443,47 Z" id="Stroke-8" stroke="#000000" stroke-linecap="round" stroke-linejoin="round" sketch:type="MSShapeGroup"></path>
            <text id="Institutioner" sketch:type="MSTextLayer" font-family="Georgia" font-size="16" font-weight="bold" fill="#000000">
                <tspan x="475.5433" y="80.8203125">Institutioner</tspan>
            </text>
            <text id="Familjen" sketch:type="MSTextLayer" font-family="Georgia" font-size="16" font-weight="normal" fill="#000000">
                <tspan x="497.2457" y="118.820312">Familjen</tspan>
            </text>
            <text id="Staten" sketch:type="MSTextLayer" font-family="Georgia" font-size="16" font-weight="normal" fill="#000000">
                <tspan x="506.0425" y="137.820312">Staten</tspan>
            </text>
            <text id="Rättssystemet" sketch:type="MSTextLayer" font-family="Georgia" font-size="16" font-weight="normal" fill="#000000">
                <tspan x="478.8985" y="156.820312">Rättssystemet</tspan>
            </text>
            <text id="Religionen" sketch:type="MSTextLayer" font-family="Georgia" font-size="16" font-weight="normal" fill="#000000">
                <tspan x="490.5161" y="175.820312">Religionen</tspan>
            </text>
            <text id="Ekonomin" sketch:type="MSTextLayer" font-family="Georgia" font-size="16" font-weight="normal" fill="#000000">
                <tspan x="491.7001" y="194.820312">Ekonomin</tspan>
            </text>
            <text id="Skolan-" sketch:type="MSTextLayer" font-family="Georgia" font-size="16" font-weight="normal" fill="#000000">
                <tspan x="504.5481" y="213.820312">Skolan </tspan>
            </text>
            <text id="Media" sketch:type="MSTextLayer" font-family="Georgia" font-size="16" font-weight="normal" fill="#000000">
                <tspan x="506.4265" y="232.820312">Media</tspan>
            </text>
            <text id="–" sketch:type="MSTextLayer" font-family="Georgia" font-size="16" font-weight="normal" fill="#000000">
                <tspan x="522.2233" y="251.820312">–</tspan>
            </text>
            <path d="M71,407.303 L212.545,407.303 C220.829,407.303 227.545,414.019 227.545,422.303 L227.545,482 C227.545,490.284 220.829,497 212.545,497 L71,497 C62.716,497 56,490.284 56,482 L56,422.303 C56,414.019 62.716,407.303 71,407.303 L71,407.303 Z" id="Fill-9" fill="#FFFFFF" sketch:type="MSShapeGroup"></path>
            <path d="M71,407.303 L212.545,407.303 C220.829,407.303 227.545,414.019 227.545,422.303 L227.545,482 C227.545,490.284 220.829,497 212.545,497 L71,497 C62.716,497 56,490.284 56,482 L56,422.303 C56,414.019 62.716,407.303 71,407.303 L71,407.303 Z" id="Stroke-10" stroke="#000000" stroke-linecap="round" stroke-linejoin="round" sketch:type="MSShapeGroup"></path>
            <text id="Kultur" sketch:type="MSTextLayer" font-family="Georgia" font-size="16" font-weight="bold" fill="#000000">
                <tspan x="114.3155" y="454.471812">Kultur</tspan>
            </text>
            <path d="M332,776.303 L473.545,776.303 C481.829,776.303 488.545,783.019 488.545,791.303 L488.545,851 C488.545,859.284 481.829,866 473.545,866 L332,866 C323.716,866 317,859.284 317,851 L317,791.303 C317,783.019 323.716,776.303 332,776.303 L332,776.303 Z" id="Fill-11" fill="#FFFFFF" sketch:type="MSShapeGroup"></path>
            <path d="M332,776.303 L473.545,776.303 C481.829,776.303 488.545,783.019 488.545,791.303 L488.545,851 C488.545,859.284 481.829,866 473.545,866 L332,866 C323.716,866 317,859.284 317,851 L317,791.303 C317,783.019 323.716,776.303 332,776.303 L332,776.303 Z" id="Stroke-12" stroke="#000000" stroke-linecap="round" stroke-linejoin="round" sketch:type="MSShapeGroup"></path>
            <text id="Normer" sketch:type="MSTextLayer" font-family="Georgia" font-size="16" font-weight="bold" fill="#000000">
                <tspan x="369.9522" y="823.471812">Normer</tspan>
            </text>
            <path d="M821,47 L992.36,47 L992.36,281 L821,281 L821,47 Z" id="Fill-13" fill="#FFFFFF" sketch:type="MSShapeGroup"></path>
            <path d="M821,47 L992.36,47 L992.36,281 L821,281 L821,47 Z" id="Stroke-14" stroke="#000000" stroke-linecap="round" stroke-linejoin="round" sketch:type="MSShapeGroup"></path>
            <text id="Sociala-kategorier-" sketch:type="MSTextLayer" font-family="Georgia" font-size="16" font-weight="bold" fill="#000000">
                <tspan x="832.0121" y="80.8203125">Sociala kategorier </tspan>
            </text>
            <text id="Klass" sketch:type="MSTextLayer" font-family="Georgia" font-size="16" font-weight="normal" fill="#000000">
                <tspan x="887.8905" y="118.820312">Klass</tspan>
            </text>
            <text id="Kön/Genus-" sketch:type="MSTextLayer" font-family="Georgia" font-size="16" font-weight="normal" fill="#000000">
                <tspan x="865.8825" y="137.820312">Kön/Genus </tspan>
            </text>
            <text id="Etnicitet" sketch:type="MSTextLayer" font-family="Georgia" font-size="16" font-weight="normal" fill="#000000">
                <tspan x="876.2537" y="156.820312">Etnicitet</tspan>
            </text>
            <text id="Sexualitet" sketch:type="MSTextLayer" font-family="Georgia" font-size="16" font-weight="normal" fill="#000000">
                <tspan x="871.6281" y="175.820312">Sexualitet</tspan>
            </text>
            <text id="Ålder" sketch:type="MSTextLayer" font-family="Georgia" font-size="16" font-weight="normal" fill="#000000">
                <tspan x="887.2841" y="194.820312">Ålder</tspan>
            </text>
            <text id="Funktionalitet" sketch:type="MSTextLayer" font-family="Georgia" font-size="16" font-weight="normal" fill="#000000">
                <tspan x="856.0729" y="213.820312">Funktionalitet</tspan>
            </text>
            <text id="Religion" sketch:type="MSTextLayer" font-family="Georgia" font-size="16" font-weight="normal" fill="#000000">
                <tspan x="877.1081" y="232.820312">Religion</tspan>
            </text>
            <text id="–" sketch:type="MSTextLayer" font-family="Georgia" font-size="16" font-weight="normal" fill="#000000">
                <tspan x="900.2217" y="251.820312">–</tspan>
            </text>
            <path d="M477.187,1072.03 L597.268,1072.03 C611.472,1072.03 623,1082.328 623,1095.015 C623,1107.703 611.472,1118 597.268,1118 L477.187,1118 C462.983,1118 451.455,1107.703 451.455,1095.015 C451.455,1082.328 462.983,1072.03 477.187,1072.03" id="Fill-15" fill="#FFFFFF" sketch:type="MSShapeGroup"></path>
            <path d="M477.187,1072.03 L597.268,1072.03 C611.472,1072.03 623,1082.327 623,1095.015 C623,1107.703 611.472,1118 597.268,1118 L477.187,1118 C462.983,1118 451.455,1107.703 451.455,1095.015 C451.455,1082.327 462.983,1072.03 477.187,1072.03" id="Stroke-16" stroke="#000000" stroke-linecap="round" stroke-linejoin="round" sketch:type="MSShapeGroup"></path>
            <text id="Socialisation" sketch:type="MSTextLayer" font-family="Georgia" font-size="16" font-weight="bold" fill="#000000">
                <tspan x="484.0439" y="1097.33541">Socialisation</tspan>
            </text>
            <path d="M845.537,1279.03 L973.565,1279.03 C988.709,1279.03 1001,1289.328 1001,1302.015 C1001,1314.703 988.709,1325 973.565,1325 L845.537,1325 C830.393,1325 818.102,1314.703 818.102,1302.015 C818.102,1289.328 830.393,1279.03 845.537,1279.03" id="Fill-17" fill="#FFFFFF" sketch:type="MSShapeGroup"></path>
            <path d="M845.537,1279.03 L973.565,1279.03 C988.709,1279.03 1001,1289.328 1001,1302.015 C1001,1314.703 988.709,1325 973.565,1325 L845.537,1325 C830.393,1325 818.102,1314.703 818.102,1302.015 C818.102,1289.328 830.393,1279.03 845.537,1279.03" id="Stroke-18" stroke="#000000" stroke-linecap="round" stroke-linejoin="round" sketch:type="MSShapeGroup"></path>
            <text id="Reproduktion" sketch:type="MSTextLayer" font-family="Georgia" font-size="16" font-weight="bold" fill="#000000">
                <tspan x="851.7034" y="1304.33541">Reproduktion</tspan>
            </text>
            <path d="M141.718,281.5 L141.755,396.879" id="Stroke-19" stroke="#000000" stroke-width="1.008" stroke-linecap="round" stroke-linejoin="round" sketch:type="MSShapeGroup"></path>
            <path d="M141.757,404.892 L144.76,396.878 L138.75,396.88 L141.757,404.892 Z" id="Fill-20" fill="#000000" sketch:type="MSShapeGroup"></path>
            <path d="M141.757,404.892 L144.76,396.878 L138.75,396.88 L141.757,404.892 Z" id="Stroke-21" stroke="#000000" stroke-width="1.008" sketch:type="MSShapeGroup"></path>
            <path d="M442.578,218.912 C400.723,245.605 358.515,267.659 317,299 C277.988,328.451 239.566,366.118 200.908,400.416" id="Stroke-22" stroke="#000000" stroke-width="1.008" stroke-linecap="round" stroke-linejoin="round" sketch:type="MSShapeGroup"></path>
            <path d="M194.896,405.711 L202.895,402.669 L198.923,398.16 L194.896,405.711 Z" id="Fill-23" fill="#000000" sketch:type="MSShapeGroup"></path>
            <path d="M194.896,405.711 L202.895,402.669 L198.923,398.16 L194.896,405.711 Z" id="Stroke-24" stroke="#000000" stroke-width="1.008" sketch:type="MSShapeGroup"></path>
            <path d="M820.589,223.48 C772.643,256.604 721.709,298.805 676.738,322.864 C631.768,346.923 606.233,355.852 550.738,367.848 C495.244,379.844 397.518,384.878 343.738,394.848 C294.522,403.973 270.778,414.728 237.544,424.874" id="Stroke-25" stroke="#000000" stroke-width="1.008" stroke-linecap="round" stroke-linejoin="round" sketch:type="MSShapeGroup"></path>
            <path d="M229.859,427.139 L238.395,427.756 L236.696,421.991 L229.859,427.139 Z" id="Fill-26" fill="#000000" sketch:type="MSShapeGroup"></path>
            <path d="M229.859,427.139 L238.395,427.756 L236.696,421.991 L229.859,427.139 Z" id="Stroke-27" stroke="#000000" stroke-width="1.008" sketch:type="MSShapeGroup"></path>
            <path d="M61.64,1226 L203,1226 C211.284,1226 218,1232.716 218,1241 L218,1330.97 C218,1339.254 211.284,1345.97 203,1345.97 L61.64,1345.97 C53.356,1345.97 46.64,1339.254 46.64,1330.97 L46.64,1241 C46.64,1232.716 53.356,1226 61.64,1226 L61.64,1226 Z" id="Fill-28" fill="#FFFFFF" sketch:type="MSShapeGroup"></path>
            <path d="M61.64,1226 L203,1226 C211.284,1226 218,1232.716 218,1241 L218,1330.97 C218,1339.254 211.284,1345.97 203,1345.97 L61.64,1345.97 C53.356,1345.97 46.64,1339.254 46.64,1330.97 L46.64,1241 C46.64,1232.716 53.356,1226 61.64,1226 L61.64,1226 Z" id="Stroke-29" stroke="#000000" stroke-linecap="round" stroke-linejoin="round" sketch:type="MSShapeGroup"></path>
            <text id="Individen-" sketch:type="MSTextLayer" font-family="Georgia" font-size="16" font-weight="bold" fill="#000000">
                <tspan x="92.3395" y="1269.30531">Individen </tspan>
            </text>
            <text id="och-dess" sketch:type="MSTextLayer" font-family="Georgia" font-size="16" font-weight="bold" fill="#000000">
                <tspan x="97.4339" y="1288.30531">och dess</tspan>
            </text>
            <text id="Identitet" sketch:type="MSTextLayer" font-family="Georgia" font-size="16" font-weight="bold" fill="#000000">
                <tspan x="96.4147" y="1307.30531">Identitet</tspan>
            </text>
            <path d="M218.5,1287.762 L807.771,1299.916" id="Stroke-30" stroke="#000000" stroke-width="1.008" stroke-linecap="round" stroke-linejoin="round" sketch:type="MSShapeGroup"></path>
            <path d="M815.782,1300.081 L807.833,1296.912 L807.709,1302.92 L815.782,1300.081 Z" id="Fill-31" fill="#000000" sketch:type="MSShapeGroup"></path>
            <path d="M815.782,1300.081 L807.833,1296.912 L807.709,1302.92 L815.782,1300.081 Z" id="Stroke-32" stroke="#000000" stroke-width="1.008" sketch:type="MSShapeGroup"></path>
            <path d="M165.121,497.444 C194.426,554.291 220.804,621.588 253.043,668 C283.148,711.339 318.38,736.492 351.554,768.927" id="Stroke-33" stroke="#000000" stroke-width="1.008" stroke-linecap="round" stroke-linejoin="round" sketch:type="MSShapeGroup"></path>
            <path d="M357.225,774.594 L353.681,766.805 L349.433,771.056 L357.225,774.594 Z" id="Fill-34" fill="#000000" sketch:type="MSShapeGroup"></path>
            <path d="M357.225,774.594 L353.681,766.805 L349.433,771.056 L357.225,774.594 Z" id="Stroke-35" stroke="#000000" stroke-width="1.008" sketch:type="MSShapeGroup"></path>
            <path d="M408.981,866.495 C414.298,905.326 407.46,948.806 424.933,983 C441.038,1014.516 477.804,1038.16 506.663,1064.811" id="Stroke-36" stroke="#000000" stroke-width="1.008" stroke-linecap="round" stroke-linejoin="round" sketch:type="MSShapeGroup"></path>
            <path d="M512.451,1070.355 L508.743,1062.643 L504.586,1066.982 L512.451,1070.355 Z" id="Fill-37" fill="#000000" sketch:type="MSShapeGroup"></path>
            <path d="M512.451,1070.355 L508.743,1062.643 L504.586,1066.982 L512.451,1070.355 Z" id="Stroke-38" stroke="#000000" stroke-width="1.008" sketch:type="MSShapeGroup"></path>
            <path d="M462.547,1114.334 C423.035,1124.555 385.278,1125.555 344,1145 C305.342,1163.211 263.574,1197.609 223.07,1225.452" id="Stroke-39" stroke="#000000" stroke-width="1.008" stroke-linecap="round" stroke-linejoin="round" sketch:type="MSShapeGroup"></path>
            <path d="M216.435,1229.944 L224.755,1227.94 L221.385,1222.964 L216.435,1229.944 Z" id="Fill-40" fill="#000000" sketch:type="MSShapeGroup"></path>
            <path d="M216.435,1229.944 L224.755,1227.94 L221.385,1222.964 L216.435,1229.944 Z" id="Stroke-41" stroke="#000000" stroke-width="1.008" sketch:type="MSShapeGroup"></path>
            <path d="M826.455,983 L968,983 C976.284,983 983,989.716 983,998 L983,1057.697 C983,1065.981 976.284,1072.697 968,1072.697 L826.455,1072.697 C818.171,1072.697 811.455,1065.981 811.455,1057.697 L811.455,998 C811.455,989.716 818.171,983 826.455,983 L826.455,983 Z" id="Fill-42" fill="#FFFFFF" sketch:type="MSShapeGroup"></path>
            <path d="M826.455,983 L968,983 C976.284,983 983,989.716 983,998 L983,1057.697 C983,1065.981 976.284,1072.697 968,1072.697 L826.455,1072.697 C818.171,1072.697 811.455,1065.981 811.455,1057.697 L811.455,998 C811.455,989.716 818.171,983 826.455,983 L826.455,983 Z" id="Stroke-43" stroke="#000000" stroke-linecap="round" stroke-linejoin="round" sketch:type="MSShapeGroup"></path>
            <text id="Maktordning" sketch:type="MSTextLayer" font-family="Georgia" font-size="16" font-weight="bold" fill="#000000">
                <tspan x="843.0088" y="1030.16881">Maktordning</tspan>
            </text>
            <path d="M332,452.303 L473.545,452.303 C481.829,452.303 488.545,459.019 488.545,467.303 L488.545,527 C488.545,535.284 481.829,542 473.545,542 L332,542 C323.716,542 317,535.284 317,527 L317,467.303 C317,459.019 323.716,452.303 332,452.303 L332,452.303 Z" id="Fill-44" fill="#FFFFFF" sketch:type="MSShapeGroup"></path>
            <path d="M332,452.303 L473.545,452.303 C481.829,452.303 488.545,459.019 488.545,467.303 L488.545,527 C488.545,535.284 481.829,542 473.545,542 L332,542 C323.716,542 317,535.284 317,527 L317,467.303 C317,459.019 323.716,452.303 332,452.303 L332,452.303 Z" id="Stroke-45" stroke="#000000" stroke-linecap="round" stroke-linejoin="round" sketch:type="MSShapeGroup"></path>
            <text id="Diskriminering" sketch:type="MSTextLayer" font-family="Georgia" font-size="16" font-weight="bold" fill="#000000">
                <tspan x="338.96" y="499.471812">Diskriminering</tspan>
            </text>
            <path d="M416.264,775.824 C425.175,745.885 443.639,724.885 443,686 C442.404,649.708 425.168,597.818 414.588,552.172" id="Stroke-46" stroke="#000000" stroke-width="1.008" stroke-linecap="round" stroke-linejoin="round" sketch:type="MSShapeGroup"></path>
            <path d="M412.846,544.354 L411.656,552.829 L417.522,551.522 L412.846,544.354 Z" id="Fill-47" fill="#000000" sketch:type="MSShapeGroup"></path>
            <path d="M412.846,544.354 L411.656,552.829 L417.522,551.522 L412.846,544.354 Z" id="Stroke-48" stroke="#000000" stroke-width="1.008" sketch:type="MSShapeGroup"></path>
            <path d="M489.026,472.438 C554.677,453.627 630.731,451.033 686,416 C738.594,382.662 772.396,319.928 814.224,269.766" id="Stroke-49" stroke="#000000" stroke-width="1.008" stroke-linecap="round" stroke-linejoin="round" sketch:type="MSShapeGroup"></path>
            <path d="M819.43,263.67 L811.941,267.812 L816.511,271.714 L819.43,263.67 Z" id="Fill-50" fill="#000000" sketch:type="MSShapeGroup"></path>
            <path d="M819.429,263.67 L811.941,267.812 L816.511,271.714 L819.429,263.67 Z" id="Stroke-51" stroke="#000000" stroke-width="1.008" sketch:type="MSShapeGroup"></path>
            <path d="M432.576,164 L237.784,164" id="Stroke-52" stroke="#000000" stroke-width="1.008" stroke-linecap="round" stroke-linejoin="round" sketch:type="MSShapeGroup"></path>
            <path d="M229.771,164 L237.784,167.005 L237.784,160.995 L229.771,164 Z" id="Fill-53" fill="#000000" sketch:type="MSShapeGroup"></path>
            <path d="M229.771,164 L237.784,167.005 L237.784,160.995 L229.771,164 Z" id="Stroke-54" stroke="#000000" stroke-width="1.008" sketch:type="MSShapeGroup"></path>
            <path d="M440.589,164 L432.576,160.995 L432.576,167.005 L440.589,164 Z" id="Fill-55" fill="#000000" sketch:type="MSShapeGroup"></path>
            <path d="M440.589,164 L432.576,160.995 L432.576,167.005 L440.589,164 Z" id="Stroke-56" stroke="#000000" stroke-width="1.008" sketch:type="MSShapeGroup"></path>
            <path d="M624.784,164 L810.576,164" id="Stroke-57" stroke="#000000" stroke-width="1.008" stroke-linecap="round" stroke-linejoin="round" sketch:type="MSShapeGroup"></path>
            <path d="M818.589,164 L810.576,160.995 L810.576,167.005 L818.589,164 Z" id="Fill-58" fill="#000000" sketch:type="MSShapeGroup"></path>
            <path d="M818.589,164 L810.576,160.995 L810.576,167.005 L818.589,164 Z" id="Stroke-59" stroke="#000000" stroke-width="1.008" sketch:type="MSShapeGroup"></path>
            <path d="M616.771,164 L624.784,167.005 L624.784,160.995 L616.771,164 Z" id="Fill-60" fill="#000000" sketch:type="MSShapeGroup"></path>
            <path d="M616.771,164 L624.784,167.005 L624.784,160.995 L616.771,164 Z" id="Stroke-61" stroke="#000000" stroke-width="1.008" sketch:type="MSShapeGroup"></path>
            <path d="M129.479,507.154 C109.716,588.357 74.976,641.244 74,758 C73.007,876.776 106.956,1061.721 124.532,1215.644" id="Stroke-62" stroke="#000000" stroke-width="1.008" stroke-linecap="round" stroke-linejoin="round" sketch:type="MSShapeGroup"></path>
            <path d="M125.426,1223.604 L127.517,1215.306 L121.545,1215.977 L125.426,1223.604 Z" id="Fill-63" fill="#000000" sketch:type="MSShapeGroup"></path>
            <path d="M125.426,1223.604 L127.517,1215.306 L121.545,1215.977 L125.426,1223.604 Z" id="Stroke-64" stroke="#000000" stroke-width="1.008" sketch:type="MSShapeGroup"></path>
            <path d="M131.294,499.35 L126.552,506.474 L132.405,507.835 L131.294,499.35 Z" id="Fill-65" fill="#000000" sketch:type="MSShapeGroup"></path>
            <path d="M131.294,499.35 L126.552,506.474 L132.405,507.835 L131.294,499.35 Z" id="Stroke-66" stroke="#000000" stroke-width="1.008" sketch:type="MSShapeGroup"></path>
            <path d="M727.455,587.151 L869,587.151 C877.284,587.151 884,593.867 884,602.151 L884,661.849 C884,670.133 877.284,676.849 869,676.849 L727.455,676.849 C719.171,676.849 712.455,670.133 712.455,661.849 L712.455,602.151 C712.455,593.867 719.171,587.151 727.455,587.151 L727.455,587.151 Z" id="Fill-67" fill="#FFFFFF" sketch:type="MSShapeGroup"></path>
            <path d="M727.455,587.151 L869,587.151 C877.284,587.151 884,593.867 884,602.151 L884,661.849 C884,670.133 877.284,676.849 869,676.849 L727.455,676.849 C719.171,676.849 712.455,670.133 712.455,661.849 L712.455,602.151 C712.455,593.867 719.171,587.151 727.455,587.151 L727.455,587.151 Z" id="Stroke-68" stroke="#000000" stroke-linecap="round" stroke-linejoin="round" sketch:type="MSShapeGroup"></path>
            <text id="Stereotyper" sketch:type="MSTextLayer" font-family="Georgia" font-size="16" font-weight="bold" fill="#000000">
                <tspan x="749.79" y="634.320312">Stereotyper</tspan>
            </text>
            <path d="M724.333,587.133 C699.558,572.09 689.212,554.388 650,542 C613.133,530.353 550.73,523.399 498.81,514.52" id="Stroke-69" stroke="#000000" stroke-width="1.008" stroke-linecap="round" stroke-linejoin="round" sketch:type="MSShapeGroup"></path>
            <path d="M490.919,513.132 L498.29,517.479 L499.332,511.561 L490.919,513.132 Z" id="Fill-70" fill="#000000" sketch:type="MSShapeGroup"></path>
            <path d="M490.919,513.132 L498.29,517.479 L499.332,511.561 L490.919,513.132 Z" id="Stroke-71" stroke="#000000" stroke-width="1.008" sketch:type="MSShapeGroup"></path>
            <path d="M30.705,1034.093 L178.768,1034.093 L178.768,1095.093 L30.705,1095.093 L30.705,1034.093 Z" id="Fill-72" fill="#FFFFFF" sketch:type="MSShapeGroup"></path>
            <text id="Genom-kulturell-" sketch:type="MSTextLayer" font-family="Georgia" font-size="16" font-style="italic" font-weight="normal" fill="#000000">
                <tspan x="46.6699" y="1047.91291">Genom kulturell </tspan>
            </text>
            <text id="tillhörighet-formas-" sketch:type="MSTextLayer" font-family="Georgia" font-size="16" font-style="italic" font-weight="normal" fill="#000000">
                <tspan x="36.9035" y="1066.91291">tillhörighet formas </tspan>
            </text>
            <text id="individens-identitet" sketch:type="MSTextLayer" font-family="Georgia" font-size="16" font-style="italic" font-weight="normal" fill="#000000">
                <tspan x="35.5435" y="1085.91291">individens identitet</tspan>
            </text>
            <path d="M931.789,281.489 C945.858,347.319 979.429,396.59 974,479 C968.571,561.41 911.946,692.092 899.211,776 C887.095,855.836 897.053,908.384 897.582,972.58" id="Stroke-73" stroke="#000000" stroke-width="1.008" stroke-linecap="round" stroke-linejoin="round" sketch:type="MSShapeGroup"></path>
            <path d="M897.584,980.589 L900.586,972.575 L894.577,972.577 L897.584,980.589 Z" id="Fill-74" fill="#000000" sketch:type="MSShapeGroup"></path>
            <path d="M897.584,980.589 L900.586,972.575 L894.577,972.577 L897.584,980.589 Z" id="Stroke-75" stroke="#000000" stroke-width="1.008" sketch:type="MSShapeGroup"></path>
            <path d="M876.452,281.484 C857.97,353.316 832.761,446.143 821,497 C810.626,541.858 810.708,554.088 807.413,576.855" id="Stroke-76" stroke="#000000" stroke-width="1.008" stroke-linecap="round" stroke-linejoin="round" sketch:type="MSShapeGroup"></path>
            <path d="M806.172,584.77 L810.381,577.319 L804.444,576.389 L806.172,584.77 Z" id="Fill-77" fill="#000000" sketch:type="MSShapeGroup"></path>
            <path d="M806.172,584.77 L810.381,577.319 L804.444,576.389 L806.172,584.77 Z" id="Stroke-78" stroke="#000000" stroke-width="1.008" sketch:type="MSShapeGroup"></path>
            <path d="M848.337,975.373 L451.672,549.627" id="Stroke-79" stroke="#000000" stroke-width="1.008" stroke-linecap="round" stroke-linejoin="round" sketch:type="MSShapeGroup"></path>
            <path d="M446.21,543.764 L449.473,551.675 L453.87,547.578 L446.21,543.764 Z" id="Fill-80" fill="#000000" sketch:type="MSShapeGroup"></path>
            <path d="M446.21,543.764 L449.473,551.675 L453.87,547.578 L446.21,543.764 Z" id="Stroke-81" stroke="#000000" stroke-width="1.008" sketch:type="MSShapeGroup"></path>
            <path d="M853.799,981.236 L850.535,973.325 L846.138,977.422 L853.799,981.236 Z" id="Fill-82" fill="#000000" sketch:type="MSShapeGroup"></path>
            <path d="M853.799,981.236 L850.535,973.325 L846.138,977.422 L853.799,981.236 Z" id="Stroke-83" stroke="#000000" stroke-width="1.008" sketch:type="MSShapeGroup"></path>
            <path d="M497.407,859.753 C538.18,876.322 572.722,889.955 623,911 C674.422,932.524 742.335,961.811 803.179,987.772" id="Stroke-84" stroke="#000000" stroke-width="1.008" stroke-linecap="round" stroke-linejoin="round" sketch:type="MSShapeGroup"></path>
            <path d="M810.547,990.914 L804.355,985.007 L801.998,990.535 L810.547,990.914 Z" id="Fill-85" fill="#000000" sketch:type="MSShapeGroup"></path>
            <path d="M810.547,990.914 L804.355,985.007 L801.998,990.535 L810.547,990.914 Z" id="Stroke-86" stroke="#000000" stroke-width="1.008" sketch:type="MSShapeGroup"></path>
            <path d="M489.986,856.732 L496.274,862.536 L498.541,856.97 L489.986,856.732 Z" id="Fill-87" fill="#000000" sketch:type="MSShapeGroup"></path>
            <path d="M489.986,856.732 L496.274,862.536 L498.54,856.97 L489.986,856.732 Z" id="Stroke-88" stroke="#000000" stroke-width="1.008" sketch:type="MSShapeGroup"></path>
            <path d="M867.768,1278.787 L587.652,1123.065" id="Stroke-89" stroke="#000000" stroke-width="1.008" stroke-linecap="round" stroke-linejoin="round" sketch:type="MSShapeGroup"></path>
            <path d="M580.649,1119.172 L586.192,1125.691 L589.112,1120.439 L580.649,1119.172 Z" id="Fill-90" fill="#000000" sketch:type="MSShapeGroup"></path>
            <path d="M580.649,1119.172 L586.192,1125.691 L589.112,1120.439 L580.649,1119.172 Z" id="Stroke-91" stroke="#000000" stroke-width="1.008" sketch:type="MSShapeGroup"></path>
            <path d="M590.716,1159.272 L790.398,1159.272 L790.398,1201.272 L590.716,1201.272 L590.716,1159.272 Z" id="Fill-92" fill="#FFFFFF" sketch:type="MSShapeGroup"></path>
            <text id="Individen-bidrar-till-" sketch:type="MSTextLayer" font-family="Georgia" font-size="16" font-style="italic" font-weight="normal" fill="#000000">
                <tspan x="619.0098" y="1173.09201">Individen bidrar till </tspan>
            </text>
            <text id="andras-socialisation" sketch:type="MSTextLayer" font-family="Georgia" font-size="16" font-style="italic" font-weight="normal" fill="#000000">
                <tspan x="617.8034" y="1192.09201">andras socialisation</tspan>
            </text>
            <path d="M334.255,921.972 L505.8,921.972 L505.8,1020.972 L334.255,1020.972 L334.255,921.972 Z" id="Fill-93" fill="#FFFFFF" sketch:type="MSShapeGroup"></path>
            <text id="Samhällets-olika-" sketch:type="MSTextLayer" font-family="Georgia" font-size="16" font-style="italic" font-weight="normal" fill="#000000">
                <tspan x="360.5856" y="935.792113">Samhällets olika </tspan>
            </text>
            <text id="aktörer-och-" sketch:type="MSTextLayer" font-family="Georgia" font-size="16" font-style="italic" font-weight="normal" fill="#000000">
                <tspan x="378.6368" y="954.792113">aktörer och </tspan>
            </text>
            <text id="institutioner-fostrar-" sketch:type="MSTextLayer" font-family="Georgia" font-size="16" font-style="italic" font-weight="normal" fill="#000000">
                <tspan x="348.2624" y="973.792113">institutioner fostrar </tspan>
            </text>
            <text id="och-fostras-i-sociala-" sketch:type="MSTextLayer" font-family="Georgia" font-size="16" font-style="italic" font-weight="normal" fill="#000000">
                <tspan x="349.36" y="992.792113">och fostras i sociala </tspan>
            </text>
            <text id="och-kulturella-normer" sketch:type="MSTextLayer" font-family="Georgia" font-size="16" font-style="italic" font-weight="normal" fill="#000000">
                <tspan x="341.4416" y="1011.79211">och kulturella normer</tspan>
            </text>
            <path d="M231.355,1122.576 L425.472,1122.576 L425.472,1183.576 L231.355,1183.576 L231.355,1122.576 Z" id="Fill-94" fill="#FFFFFF" sketch:type="MSShapeGroup"></path>
            <text id="Kulturen-och-normen-blir-" sketch:type="MSTextLayer" font-family="Georgia" font-size="16" font-style="italic" font-weight="normal" fill="#000000">
                <tspan x="237.1826" y="1136.39621">Kulturen och normen blir </tspan>
            </text>
            <text id="till-en-del-av-det-egna-" sketch:type="MSTextLayer" font-family="Georgia" font-size="16" font-style="italic" font-weight="normal" fill="#000000">
                <tspan x="252.2018" y="1155.39621">till en del av det egna </tspan>
            </text>
            <text id="tänkandet" sketch:type="MSTextLayer" font-family="Georgia" font-size="16" font-style="italic" font-weight="normal" fill="#000000">
                <tspan x="291.6594" y="1174.39621">tänkandet</tspan>
            </text>
            <path d="M403.897,1253.599 L599.038,1253.599 L599.038,1333.599 L403.897,1333.599 L403.897,1253.599 Z" id="Fill-95" fill="#FFFFFF" sketch:type="MSShapeGroup"></path>
            <text id="Individen-upprätthåller-" sketch:type="MSTextLayer" font-family="Georgia" font-size="16" font-style="italic" font-weight="normal" fill="#000000">
                <tspan x="416.1545" y="1267.41881">Individen upprätthåller </tspan>
            </text>
            <text id="och-återskapar-normen-" sketch:type="MSTextLayer" font-family="Georgia" font-size="16" font-style="italic" font-weight="normal" fill="#000000">
                <tspan x="416.9705" y="1286.41881">och återskapar normen </tspan>
            </text>
            <text id="genom-kommunikation-" sketch:type="MSTextLayer" font-family="Georgia" font-size="16" font-style="italic" font-weight="normal" fill="#000000">
                <tspan x="417.8649" y="1305.41881">genom kommunikation </tspan>
            </text>
            <text id="och-handling" sketch:type="MSTextLayer" font-family="Georgia" font-size="16" font-style="italic" font-weight="normal" fill="#000000">
                <tspan x="454.7481" y="1324.41881">och handling</tspan>
            </text>
            <path d="M772.803,367.889 L899.211,367.889 L899.211,504.889 L772.803,504.889 L772.803,367.889 Z" id="Fill-96" fill="#FFFFFF" sketch:type="MSShapeGroup"></path>
            <text id="Missvisande-" sketch:type="MSTextLayer" font-family="Georgia" font-size="16" font-style="italic" font-weight="normal" fill="#000000">
                <tspan x="791.5029" y="381.709512">Missvisande </tspan>
            </text>
            <text id="generaliseringar-" sketch:type="MSTextLayer" font-family="Georgia" font-size="16" font-style="italic" font-weight="normal" fill="#000000">
                <tspan x="775.3589" y="400.709512">generaliseringar </tspan>
            </text>
            <text id="och-överdrivna-" sketch:type="MSTextLayer" font-family="Georgia" font-size="16" font-style="italic" font-weight="normal" fill="#000000">
                <tspan x="781.3077" y="419.709512">och överdrivna </tspan>
            </text>
            <text id="uppfattningar-" sketch:type="MSTextLayer" font-family="Georgia" font-size="16" font-style="italic" font-weight="normal" fill="#000000">
                <tspan x="784.7173" y="438.709512">uppfattningar </tspan>
            </text>
            <text id="om-personer-av-" sketch:type="MSTextLayer" font-family="Georgia" font-size="16" font-style="italic" font-weight="normal" fill="#000000">
                <tspan x="779.9093" y="457.709512">om personer av </tspan>
            </text>
            <text id="en-viss-social-" sketch:type="MSTextLayer" font-family="Georgia" font-size="16" font-style="italic" font-weight="normal" fill="#000000">
                <tspan x="789.4565" y="476.709512">en viss social </tspan>
            </text>
            <text id="kategori" sketch:type="MSTextLayer" font-family="Georgia" font-size="16" font-style="italic" font-weight="normal" fill="#000000">
                <tspan x="805.7029" y="495.709512">kategori</tspan>
            </text>
            <path d="M560,508.096 L702.794,508.096 L702.794,588.096 L560,588.096 L560,508.096 Z" id="Fill-97" fill="#FFFFFF" sketch:type="MSShapeGroup"></path>
            <text id="Negativ-åtskillnad-" sketch:type="MSTextLayer" font-family="Georgia" font-size="16" font-style="italic" font-weight="normal" fill="#000000">
                <tspan x="565.0571" y="521.916212">Negativ åtskillnad </tspan>
            </text>
            <text id="och-särbehandling-" sketch:type="MSTextLayer" font-family="Georgia" font-size="16" font-style="italic" font-weight="normal" fill="#000000">
                <tspan x="564.7531" y="540.916212">och särbehandling </tspan>
            </text>
            <text id="på-felaktiga-" sketch:type="MSTextLayer" font-family="Georgia" font-size="16" font-style="italic" font-weight="normal" fill="#000000">
                <tspan x="588.4523" y="559.916212">på felaktiga </tspan>
            </text>
            <text id="grunder" sketch:type="MSTextLayer" font-family="Georgia" font-size="16" font-style="italic" font-weight="normal" fill="#000000">
                <tspan x="601.7371" y="578.916212">grunder</tspan>
            </text>
            <path d="M174.546,601.325 L309.269,601.325 L309.269,700.325 L174.546,700.325 L174.546,601.325 Z" id="Fill-98" fill="#FFFFFF" sketch:type="MSShapeGroup"></path>
            <text id="Ideal,-&quot;regler&quot;-och-" sketch:type="MSTextLayer" font-family="Georgia" font-size="16" font-style="italic" font-weight="normal" fill="#000000">
                <tspan x="176.7315" y="615.145312">Ideal, "regler" och </tspan>
            </text>
            <text id="föreställningar-" sketch:type="MSTextLayer" font-family="Georgia" font-size="16" font-style="italic" font-weight="normal" fill="#000000">
                <tspan x="187.4739" y="634.145312">föreställningar </tspan>
            </text>
            <text id="kring-hur-" sketch:type="MSTextLayer" font-family="Georgia" font-size="16" font-style="italic" font-weight="normal" fill="#000000">
                <tspan x="207.5907" y="653.145312">kring hur </tspan>
            </text>
            <text id="människor-bör-" sketch:type="MSTextLayer" font-family="Georgia" font-size="16" font-style="italic" font-weight="normal" fill="#000000">
                <tspan x="188.4659" y="672.145312">människor bör </tspan>
            </text>
            <text id="vara-och-agera" sketch:type="MSTextLayer" font-family="Georgia" font-size="16" font-style="italic" font-weight="normal" fill="#000000">
                <tspan x="187.2515" y="691.145312">vara och agera</tspan>
            </text>
            <path d="M547.006,889.251 L740.61,889.251 L740.61,950.251 L547.006,950.251 L547.006,889.251 Z" id="Fill-99" fill="#FFFFFF" sketch:type="MSShapeGroup"></path>
            <text id="Maktordningen-bidrar-till-" sketch:type="MSTextLayer" font-family="Georgia" font-size="16" font-style="italic" font-weight="normal" fill="#000000">
                <tspan x="550.3748" y="903.070812">Maktordningen bidrar till </tspan>
            </text>
            <text id="normerna-och-normerna-" sketch:type="MSTextLayer" font-family="Georgia" font-size="16" font-style="italic" font-weight="normal" fill="#000000">
                <tspan x="554.5076" y="922.070812">normerna och normerna </tspan>
            </text>
            <text id="bidrar-till-maktordningen" sketch:type="MSTextLayer" font-family="Georgia" font-size="16" font-style="italic" font-weight="normal" fill="#000000">
                <tspan x="550.7572" y="941.070812">bidrar till maktordningen</tspan>
            </text>
            <path d="M349.308,650.363 L536.676,650.363 L536.676,730.363 L349.308,730.363 L349.308,650.363 Z" id="Fill-100" fill="#FFFFFF" sketch:type="MSShapeGroup"></path>
            <text id="Personer-som-inte-" sketch:type="MSTextLayer" font-family="Georgia" font-size="16" font-style="italic" font-weight="normal" fill="#000000">
                <tspan x="378.4291" y="664.183513">Personer som inte </tspan>
            </text>
            <text id="stämmer-in-i-rådande-" sketch:type="MSTextLayer" font-family="Georgia" font-size="16" font-style="italic" font-weight="normal" fill="#000000">
                <tspan x="364.8307" y="683.183513">stämmer in i rådande </tspan>
            </text>
            <text id="norm-ses-som-avvikande-" sketch:type="MSTextLayer" font-family="Georgia" font-size="16" font-style="italic" font-weight="normal" fill="#000000">
                <tspan x="354.5379" y="702.183513">norm ses som avvikande </tspan>
            </text>
            <text id="och-&quot;konstiga&quot;" sketch:type="MSTextLayer" font-family="Georgia" font-size="16" font-style="italic" font-weight="normal" fill="#000000">
                <tspan x="391.0419" y="721.183513">och "konstiga"</tspan>
            </text>
            <path d="M803.623,731.564 L1000.564,731.564 L1000.564,792.564 L803.623,792.564 L803.623,731.564 Z" id="Fill-101" fill="#FFFFFF" sketch:type="MSShapeGroup"></path>
            <text id="Hierarki-och-" sketch:type="MSTextLayer" font-family="Georgia" font-size="16" font-style="italic" font-weight="normal" fill="#000000">
                <tspan x="856.4995" y="745.384512">Hierarki och </tspan>
            </text>
            <text id="maktfördelning-inom-de-" sketch:type="MSTextLayer" font-family="Georgia" font-size="16" font-style="italic" font-weight="normal" fill="#000000">
                <tspan x="815.1395" y="764.384512">maktfördelning inom de </tspan>
            </text>
            <text id="sociala-kategorierna" sketch:type="MSTextLayer" font-family="Georgia" font-size="16" font-style="italic" font-weight="normal" fill="#000000">
                <tspan x="827.8931" y="783.384512">sociala kategorierna</tspan>
            </text>
            <path d="M143.623,497.5 C147.415,590.425 126.544,672.134 155,776.303 C182.718,877.771 257.254,1000.609 310.195,1113.577" id="Stroke-102" stroke="#000000" stroke-width="1.008" stroke-linecap="round" stroke-linejoin="round" sketch:type="MSShapeGroup"></path>
            <path d="M313.57,1120.843 L312.919,1112.31 L307.469,1114.841 L313.57,1120.843 Z" id="Fill-103" fill="#000000" sketch:type="MSShapeGroup"></path>
            <path d="M313.57,1120.843 L312.919,1112.31 L307.469,1114.841 L313.57,1120.843 Z" id="Stroke-104" stroke="#000000" stroke-width="1.008" sketch:type="MSShapeGroup"></path>
            <path d="M908.496,1278.531 L899.717,1083.111" id="Stroke-105" stroke="#000000" stroke-width="1.008" stroke-linecap="round" stroke-linejoin="round" sketch:type="MSShapeGroup"></path>
            <path d="M899.358,1075.106 L896.715,1083.245 L902.719,1082.976 L899.358,1075.106 Z" id="Fill-106" fill="#000000" sketch:type="MSShapeGroup"></path>
            <path d="M899.357,1075.106 L896.715,1083.245 L902.719,1082.976 L899.357,1075.106 Z" id="Stroke-107" stroke="#000000" stroke-width="1.008" sketch:type="MSShapeGroup"></path>
            <path d="M316.507,482.176 L237.816,468.515" id="Stroke-108" stroke="#000000" stroke-width="1.008" stroke-linecap="round" stroke-linejoin="round" sketch:type="MSShapeGroup"></path>
            <path d="M229.921,467.144 L237.302,471.475 L238.33,465.554 L229.921,467.144 Z" id="Fill-109" fill="#000000" sketch:type="MSShapeGroup"></path>
            <path d="M229.921,467.144 L237.302,471.475 L238.33,465.554 L229.921,467.144 Z" id="Stroke-110" stroke="#000000" stroke-width="1.008" sketch:type="MSShapeGroup"></path>
            <path d="M799.493,677.348 C800.662,719.228 789.877,752.14 803,803 C815.461,851.292 849.483,915.793 874.354,973.41" id="Stroke-111" stroke="#000000" stroke-width="1.008" stroke-linecap="round" stroke-linejoin="round" sketch:type="MSShapeGroup"></path>
            <path d="M877.491,980.78 L877.118,972.231 L871.589,974.584 L877.491,980.78 Z" id="Fill-112" fill="#000000" sketch:type="MSShapeGroup"></path>
            <path d="M877.491,980.78 L877.118,972.231 L871.589,974.584 L877.491,980.78 Z" id="Stroke-113" stroke="#000000" stroke-width="1.008" sketch:type="MSShapeGroup"></path>
            <path d="M232.337,273.619 L405.337,273.619 L405.337,321.619 L232.337,321.619 L232.337,273.619 Z" id="Fill-114" fill="#FFFFFF" sketch:type="MSShapeGroup"></path>
            <text id="Institutionerna-" sketch:type="MSTextLayer" font-family="Georgia" font-size="16" font-style="italic" font-weight="normal" fill="#000000">
                <tspan x="264.0794" y="290.439713">Institutionerna </tspan>
            </text>
            <text id="upprätthåller-kulturen" sketch:type="MSTextLayer" font-family="Georgia" font-size="16" font-style="italic" font-weight="normal" fill="#000000">
                <tspan x="237.4506" y="309.439713">upprätthåller kulturen</tspan>
            </text>
            <path d="M424.933,341.602 L696.933,341.602 L696.933,389.602 L424.933,389.602 L424.933,341.602 Z" id="Fill-115" fill="#FFFFFF" sketch:type="MSShapeGroup"></path>
            <text id="Sociala-kategorier-bestämmer-i-stor-" sketch:type="MSTextLayer" font-family="Georgia" font-size="16" font-style="italic" font-weight="normal" fill="#000000">
                <tspan x="432.0662" y="358.421912">Sociala kategorier bestämmer i stor </tspan>
            </text>
            <text id="utsträckningvilken-kultur-vi-tillhör" sketch:type="MSTextLayer" font-family="Georgia" font-size="16" font-style="italic" font-weight="normal" fill="#000000">
                <tspan x="436.2694" y="377.421912">utsträckningvilken kultur vi tillhör</tspan>
            </text>
            <path d="M814.665,1137.494 L992.665,1137.494 L992.665,1204.494 L814.665,1204.494 L814.665,1137.494 Z" id="Fill-116" fill="#FFFFFF" sketch:type="MSShapeGroup"></path>
            <text id="Återskapandet-av-" sketch:type="MSTextLayer" font-family="Georgia" font-size="16" font-style="italic" font-weight="normal" fill="#000000">
                <tspan x="839.9073" y="1154.31471">Återskapandet av </tspan>
            </text>
            <text id="normer-innebär-också-" sketch:type="MSTextLayer" font-family="Georgia" font-size="16" font-style="italic" font-weight="normal" fill="#000000">
                <tspan x="824.1265" y="1173.31471">normer innebär också </tspan>
            </text>
            <text id="återskapandet-av-makt" sketch:type="MSTextLayer" font-family="Georgia" font-size="16" font-style="italic" font-weight="normal" fill="#000000">
                <tspan x="820.1457" y="1192.31471">återskapandet av makt</tspan>
            </text>
            <path d="M126.335,857.926 L272.335,857.926 L272.335,924.926 L126.335,924.926 L126.335,857.926 Z" id="Fill-117" fill="#FFFFFF" sketch:type="MSShapeGroup"></path>
            <text id="Kulturen,-normen" sketch:type="MSTextLayer" font-family="Georgia" font-size="16" font-style="italic" font-weight="normal" fill="#000000">
                <tspan x="135.0151" y="874.746612">Kulturen, normen</tspan>
            </text>
            <text id="&amp;-individen-är-ej-" sketch:type="MSTextLayer" font-family="Georgia" font-size="16" font-style="italic" font-weight="normal" fill="#000000">
                <tspan x="139.6327" y="893.746612">&amp; individen är ej </tspan>
            </text>
            <text id="enkelt-att-separera" sketch:type="MSTextLayer" font-family="Georgia" font-size="16" font-style="italic" font-weight="normal" fill="#000000">
                <tspan x="131.6247" y="912.746612">enkelt att separera</tspan>
            </text>
            <path d="M272.335,866.42 L307.14,854.498" id="Stroke-118" stroke="#000000" stroke-width="1.008" stroke-linecap="round" stroke-linejoin="round" sketch:type="MSShapeGroup"></path>
            <path d="M314.72,851.901 L306.166,851.655 L308.114,857.34 L314.72,851.901 Z" id="Fill-119" fill="#000000" sketch:type="MSShapeGroup"></path>
            <path d="M314.72,851.901 L306.166,851.655 L308.114,857.341 L314.72,851.901 Z" id="Stroke-120" stroke="#000000" stroke-width="1.008" sketch:type="MSShapeGroup"></path>
            <path d="M181.035,924.926 L126.158,1025.383" id="Stroke-121" stroke="#000000" stroke-width="1.008" stroke-linecap="round" stroke-linejoin="round" sketch:type="MSShapeGroup"></path>
            <path d="M122.317,1032.415 L128.795,1026.824 L123.521,1023.943 L122.317,1032.415 Z" id="Fill-122" fill="#000000" sketch:type="MSShapeGroup"></path>
            <path d="M122.317,1032.415 L128.795,1026.824 L123.521,1023.943 L122.317,1032.415 Z" id="Stroke-123" stroke="#000000" stroke-width="1.008" sketch:type="MSShapeGroup"></path>
            <path d="M578.099,678.359 L680.653,678.359 L680.653,802.359 L578.099,802.359 L578.099,678.359 Z" id="Fill-124" fill="#FFFFFF" sketch:type="MSShapeGroup"></path>
            <text id="Bestämmer-" sketch:type="MSTextLayer" font-family="Georgia" font-size="16" font-style="italic" font-weight="normal" fill="#000000">
                <tspan x="588.0285" y="695.179712">Bestämmer </tspan>
            </text>
            <text id="vilka-sociala-" sketch:type="MSTextLayer" font-family="Georgia" font-size="16" font-style="italic" font-weight="normal" fill="#000000">
                <tspan x="584.4781" y="714.179712">vilka sociala </tspan>
            </text>
            <text id="kategorier-" sketch:type="MSTextLayer" font-family="Georgia" font-size="16" font-style="italic" font-weight="normal" fill="#000000">
                <tspan x="591.6077" y="733.179712">kategorier </tspan>
            </text>
            <text id="det-är-" sketch:type="MSTextLayer" font-family="Georgia" font-size="16" font-style="italic" font-weight="normal" fill="#000000">
                <tspan x="608.0221" y="752.179712">det är </tspan>
            </text>
            <text id="gynnsamt-" sketch:type="MSTextLayer" font-family="Georgia" font-size="16" font-style="italic" font-weight="normal" fill="#000000">
                <tspan x="593.0381" y="771.179712">gynnsamt </tspan>
            </text>
            <text id="att-tillhöra" sketch:type="MSTextLayer" font-family="Georgia" font-size="16" font-style="italic" font-weight="normal" fill="#000000">
                <tspan x="590.5229" y="790.179712">att tillhöra</tspan>
            </text>
            <path d="M680.653,708.735 L723.451,682.339" id="Stroke-125" stroke="#000000" stroke-width="1.008" stroke-linecap="round" stroke-linejoin="round" sketch:type="MSShapeGroup"></path>
            <path d="M730.272,678.133 L721.874,679.782 L725.029,684.897 L730.272,678.133 Z" id="Fill-126" fill="#000000" sketch:type="MSShapeGroup"></path>
            <path d="M730.271,678.133 L721.874,679.782 L725.029,684.897 L730.271,678.133 Z" id="Stroke-127" stroke="#000000" stroke-width="1.008" sketch:type="MSShapeGroup"></path>
            <path d="M489.019,791.921 L568.7,764.915" id="Stroke-128" stroke="#000000" stroke-width="1.008" stroke-linecap="round" stroke-linejoin="round" sketch:type="MSShapeGroup"></path>
            <path d="M576.289,762.343 L567.736,762.069 L569.665,767.761 L576.289,762.343 Z" id="Fill-129" fill="#000000" sketch:type="MSShapeGroup"></path>
            <path d="M576.289,762.343 L567.736,762.069 L569.665,767.761 L576.289,762.343 Z" id="Stroke-130" stroke="#000000" stroke-width="1.008" sketch:type="MSShapeGroup"></path>
        </g>
    </g>
</svg>